# xmcd
#
# Track frame offsets:
#	182
#	14012
#	24600
#	36827
#	47030
#	64792
#	78525
#	91985
#	102067
#	112997
#	127355
#	137415
#	148167
#	159547
#	176457
#	188550
#	199802
#	210020
#	223350
#	236397
#	245257
#	257640
#	268975
#	282062
#	294450
#
# Disc length: 4077
#
# Revision: 1
# Processed by: cddbd v1.5.1PL0 Copyright (c) Steve Scherf et al.
# Submitted via: ExactAudioCopy v0.95a5
# Normalized: r0:TDELIM( - )
#
DISCID=6f0feb19
DTITLE=Various Artist - Country Music Superstars - 100 Greatest Hits [CD1]
DYEAR=1994
DGENRE=Country
TTITLE0=Lynn Anderson - Rose Garden
TTITLE1=Roger Miller - Kansas City Star
TTITLE2=Billie Jo Spears - Misty Blue
TTITLE3=Johnny Cash - The Ways Of A Woman In Love
TTITLE4=Carter Family - Will The Circle Be Unbroken
TTITLE5=Donna Fargo - You Can't Be A Beacon (If Your Light Don't Shine)
TTITLE6=Charley Pride - (I'm So) Afraid Of Losing You Again
TTITLE7=Dolly Parton - Release Me
TTITLE8=Oak Ridge Boys - Walk With Me
TTITLE9=Johnny Lee - Long Black Veil
TTITLE10=Kitty Wells - I Can't Stop Loving You
TTITLE11=Billie Joe Spears - What I've Got In Mind
TTITLE12=Charley Pride - It's Gonna Take A Little Bit Longer
TTITLE13=John Conlee - Don't Get Me Started
TTITLE14=Lynn Anderson - How Can I Unlove You
TTITLE15=Conway Twitty - Hello Darlin'
TTITLE16=Roy Clark - Georgia On My Mind
TTITLE17=Kenny Rogers - Ruby, Don't Take Your Love To Town
TTITLE18=George Jones - Things Have Gone To Pieces
TTITLE19=Loretta Lynn - They Don't Make 'Em Like My Daddy
TTITLE20=Mickey Gilley - Wild Side Of Life
TTITLE21=Willie Nelson - Night Life
TTITLE22=Johnny Lee - One In A Million
TTITLE23=Wilma Lee/Stoney Cooper - Big Midnight Special
TTITLE24=Charley Pride - My Eyes Can Only See As Far As You
EXTD=
EXTT0=
EXTT1=
EXTT2=
EXTT3=
EXTT4=
EXTT5=
EXTT6=
EXTT7=
EXTT8=
EXTT9=
EXTT10=
EXTT11=
EXTT12=
EXTT13=
EXTT14=
EXTT15=
EXTT16=
EXTT17=
EXTT18=
EXTT19=
EXTT20=
EXTT21=
EXTT22=
EXTT23=
EXTT24=
PLAYORDER=
